<svg width="370.37872" height="127.92921000000001" xmlns="http://www.w3.org/2000/svg" version="1.1">
 <defs id="defs2">
  <rect id="rect871" height="121.04508" width="844.87097" y="255.24126" x="171.01164"/>
  <rect id="rect1911" height="275.66055" width="990.33606" y="255.24126" x="171.01164"/>
  <rect id="rect2567" height="275.66055" width="990.33606" y="255.24126" x="171.01164"/>
  <rect id="rect2590" height="275.66055" width="990.33606" y="255.24126" x="171.01164"/>
  <rect id="rect2567-7" height="275.66055" width="990.33606" y="255.24126" x="171.01164"/>
  <rect id="rect2590-3" height="275.66055" width="990.33606" y="255.24126" x="171.01164"/>
  <rect id="rect2567-2" height="275.66055" width="990.33606" y="255.24126" x="171.01164"/>
  <rect id="rect2590-8" height="275.66055" width="990.33606" y="255.24126" x="171.01164"/>
 </defs>
 <metadata id="metadata5">image/svg+xml</metadata>
 <g>
  <title>Layer 1</title>
  <g display="inline"  id="layer1" >
   <g fill="#000000" display="inline" font-family="Eurostile" font-size="140.839px" id="text2730" transform="matrix(0.509286 0 0 0.508481 -89.5959 -41.2572)" aria-label="prometech">
    <path stroke="#ffffff" fill="#ffffff" id="path2744" d="m334.01076,184.28524l8.73367,0l-0.27508,7.87405q3.26653,-4.95137 7.87406,-6.77375q4.60752,-1.82238 11.27812,-1.82238q10.41851,0 15.67934,3.50722q5.29522,3.47284 6.91129,9.90275q1.61607,6.39552 1.61607,17.15787q0,8.11475 -0.72207,13.40997q-0.72208,5.29521 -3.02584,9.35259q-2.30376,4.05737 -7.01444,6.29236q-4.71068,2.20061 -12.48158,2.20061q-6.80814,0 -11.75951,-1.61607q-4.95137,-1.65046 -8.08036,-6.39552l0,33.24983l-8.73367,0l0,-86.33953zm8.87121,28.16092l0,4.64191q0,7.22075 1.13468,11.5532q1.13469,4.33245 4.77945,6.80814q3.67915,2.47568 10.83113,2.47568q7.80528,0 11.38127,-2.37253q3.576,-2.37253 4.46999,-6.60183q0.92838,-4.26368 0.92838,-12.41281l0,-3.54161q0,-8.63051 -0.82522,-12.96296q-0.82523,-4.33245 -4.36684,-6.73937q-3.5416,-2.40691 -11.27812,-2.40691q-7.66775,0 -11.31251,2.2006q-3.64476,2.16623 -4.71068,6.53306q-1.03153,4.36684 -1.03153,12.82543z"/>
    <path stroke="#ffffff" fill="#ffffff" id="path2746" d="m399.68629,184.28524l8.73367,0l-0.13754,6.91129q5.15768,-8.32106 16.47019,-8.32106q17.46734,0 17.46734,21.38717l-8.73367,0q0,-6.98005 -2.09746,-10.45289q-2.09745,-3.47284 -8.59613,-3.47284q-14.09765,0 -14.09765,14.09766l0,40.26427l-9.00875,0l0,-60.4136z"/>
    <path stroke="#ffffff" fill="#ffffff" id="path2748" d="m448.31593,212.72124q0,-10.96867 1.89115,-17.22665q1.92553,-6.25798 7.42705,-9.28382q5.50153,-3.06022 16.29827,-3.06022q11.62197,0 17.50172,2.54445q5.91414,2.51007 8.08036,8.63052q2.16623,6.12044 2.16623,17.84556q0,12.30966 -1.27223,18.91149q-1.23784,6.60183 -6.6706,10.62482q-5.39837,3.9886 -17.12349,3.9886q-11.24374,0 -17.22665,-2.13184q-5.94852,-2.16622 -8.52736,-7.97721q-2.54445,-5.81098 -2.54445,-17.0891l0,-5.7766zm9.14628,0l0,5.08891q0,13.92573 3.64476,17.87995q2.57884,2.54445 9.73082,2.54445l4.36684,0q5.77659,0 9.18066,-0.92838q3.40407,-0.92838 5.29522,-3.71353q1.92553,-2.78514 2.26938,-8.32105q0.17192,-4.81384 0.17192,-13.82258q0,-8.76805 -0.75646,-12.82543q-0.72207,-4.05737 -3.88545,-6.01729q-3.12899,-1.9943 -10.31536,-1.9943l-1.95991,0q-8.11475,0 -11.75951,1.51292q-3.61038,1.51292 -4.81383,5.57029q-1.16908,4.05737 -1.16908,13.06612l0,1.95992z"/>
    <path stroke="#ffffff" fill="#ffffff" id="path2750" d="m515.50768,184.28524l8.73367,0l0,9.00874q4.98575,-9.86836 19.56479,-9.86836q16.22949,0 19.42725,9.86836q5.94853,-10.14343 20.28687,-10.14343q7.97721,0 12.72228,2.16622q4.77944,2.16623 6.94567,6.87691q2.16622,4.67629 2.16622,12.51596l0,39.9892l-9.14628,0l0,-40.71127q0,-7.66775 -2.92268,-10.52167q-2.8883,-2.85391 -10.72797,-2.85391q-5.22645,0 -9.79959,1.58169q-4.57315,1.58169 -6.39552,5.46714q-1.40977,3.43845 -1.40977,10.00589l0,37.03213l-9.31821,0l0,-39.9892q-0.2063,-5.81098 -1.27222,-8.63051q-1.03154,-2.85392 -3.88545,-4.02299q-2.81954,-1.16907 -8.9056,-1.16907q-9.55889,0 -13.44434,4.71068q-3.88545,4.71067 -3.88545,14.44149l0,34.6596l-8.73367,0l0,-60.4136z"/>
    <path stroke="#ffffff" fill="#ffffff" id="path2752" d="m661.84187,226.23435l9.45574,0q0,8.49298 -3.0946,12.65351q-3.06023,4.12614 -8.35544,5.3296q-5.29522,1.16907 -14.33835,1.16907q-8.49297,0 -13.78819,-1.51292q-5.26083,-1.51291 -8.14913,-4.8826q-2.85392,-3.40407 -3.98861,-8.90559q-1.1003,-5.53591 -1.1003,-14.26958q0,-11.96581 1.58169,-18.56764q1.58168,-6.63621 7.08321,-10.2122q5.53591,-3.61038 16.95157,-3.61038q11.38127,0 17.0891,2.37254q5.70784,2.33814 7.80529,8.14913q2.13184,5.7766 2.30376,17.50172l0,4.6763l-43.39326,0q0,8.35543 0.75646,12.6535q0.79084,4.29806 4.26368,6.8769q3.50722,2.57884 11.17497,2.57884l2.40691,0q7.5646,0 11.45005,-1.78799q3.88545,-1.82238 3.88545,-8.2179l0,-1.99431zm0.17192,-17.15787q0,-8.14913 -1.06592,-11.93143q-1.03153,-3.7823 -4.64191,-5.29522q-3.57599,-1.51292 -11.48443,-1.51292q-6.94567,0 -10.55605,1.68484q-3.61037,1.65046 -4.98575,5.60468q-1.37538,3.95422 -1.37538,11.45005l34.10944,0z"/>
    <path stroke="#ffffff" fill="#ffffff" id="path2754" d="m716.69889,184.28524l0,7.3239l-23.24394,0l0,36.89459q0,5.46714 1.65046,7.46144q1.65046,1.95992 6.80814,1.95992q5.63906,0 7.18636,-2.51007q1.5473,-2.51007 1.5473,-8.18351l0,-3.7823l8.42421,0q0,11.00305 -3.3353,16.47018q-3.30091,5.46714 -13.82257,5.46714q-6.70499,0 -10.52167,-1.5473q-3.7823,-1.5473 -5.43275,-5.19206q-1.65046,-3.64476 -1.65046,-10.14344l0,-36.89459l-7.90844,0l0,-7.3239l7.90844,0l0,-14.51027l9.14628,0l0,14.51027l23.24394,0z"/>
    <path stroke="#ffffff" fill="#ffffff" id="path2756" d="m768.20692,226.23435l9.45575,0q0,8.49298 -3.09461,12.65351q-3.06022,4.12614 -8.35544,5.3296q-5.29522,1.16907 -14.33835,1.16907q-8.49297,0 -13.78819,-1.51292q-5.26083,-1.51291 -8.14913,-4.8826q-2.85392,-3.40407 -3.98861,-8.90559q-1.1003,-5.53591 -1.1003,-14.26958q0,-11.96581 1.58169,-18.56764q1.58168,-6.63621 7.08321,-10.2122q5.53591,-3.61038 16.95157,-3.61038q11.38128,0 17.08911,2.37254q5.70783,2.33814 7.80528,8.14913q2.13184,5.7766 2.30377,17.50172l0,4.6763l-43.39327,0q0,8.35543 0.75646,12.6535q0.79084,4.29806 4.26368,6.8769q3.50722,2.57884 11.17497,2.57884l2.40691,0q7.5646,0 11.45005,-1.78799q3.88545,-1.82238 3.88545,-8.2179l0,-1.99431zm0.17192,-17.15787q0,-8.14913 -1.06592,-11.93143q-1.03153,-3.7823 -4.64191,-5.29522q-3.57599,-1.51292 -11.48443,-1.51292q-6.94567,0 -10.55605,1.68484q-3.61037,1.65046 -4.98575,5.60468q-1.37538,3.95422 -1.37538,11.45005l34.10944,0z"/>
    <path stroke="#ffffff" fill="#ffffff" id="path2758" d="m831.38683,222.5896l9.00875,0q0,9.28382 -2.54446,14.13203q-2.51007,4.81384 -7.90844,6.60183q-5.39837,1.788 -15.02603,1.788q-9.42136,0 -14.81973,-1.85677q-5.39837,-1.89115 -7.94283,-5.7766q-2.51007,-3.91983 -3.19776,-9.45574q-0.6533,-5.53591 -0.6533,-15.57619q0,-10.6592 2.23499,-16.81403q2.23499,-6.18921 8.01159,-9.1119q5.81099,-2.95707 16.36704,-2.95707q11.62196,0 17.91433,3.74792q6.32675,3.71352 6.32675,14.71657l0,1.95992l-8.73366,0q0,-5.46714 -1.44415,-8.25229q-1.40977,-2.78514 -4.50438,-3.81668q-3.06022,-1.03153 -8.56174,-1.03153q-8.2179,0 -11.96582,1.58168q-3.74791,1.58169 -4.98575,5.7766q-1.23785,4.16053 -1.23785,13.20366l0,6.05168q0,8.01159 0.894,12.06896q0.92838,4.05738 4.46999,6.2236q3.54161,2.13184 11.14059,2.13184q7.25513,0 10.69358,-0.92838q3.43845,-0.96277 4.95137,-4.19491q1.51292,-3.26653 1.51292,-10.2122z"/>
    <path stroke="#ffffff" fill="#ffffff" id="path2760" d="m861.19188,158.35931l0,32.83722q2.8883,-4.95138 7.46144,-6.49868q4.60753,-1.5473 11.69074,-1.5473q8.63052,0 13.51312,2.02868q4.91699,1.99431 7.11759,6.77376q2.20061,4.77944 2.20061,13.44434l0,39.30151l-9.14628,0l0,-39.30151q0,-1.13469 0.13754,-1.68484q0,-5.53591 -1.44415,-8.38982q-1.40977,-2.85392 -4.46999,-3.91984q-3.06022,-1.06592 -8.59613,-1.06592q-7.56459,0 -11.5532,1.95992q-3.95422,1.95992 -5.43275,6.12045q-1.47854,4.16052 -1.47854,11.62196l0,34.6596l-8.8712,0l0,-86.33953l8.8712,0z"/>
   </g>
  </g>
  <g display="inline"  id="layer2" >
   <path stroke-width="0.1866px" stroke="#ffffff" fill="#ffffff" d="m33.35551,0.22144c0,0 -0.91291,12.69257 -7.50354,24.32995c-5.81363,10.26537 -13.7526,16.40195 -21.53868,33.68088c-15.85918,38.65019 18.07791,62.69368 18.07791,62.69368c0,0 1.22618,-10.48771 9.60238,-21.27154c12.92941,-16.64576 22.19748,-29.22026 22.874,-45.26922c-1.52781,-32.54088 -21.51207,-54.16375 -21.51207,-54.16375zm3.33139,32.26136c0,0 9.24538,11.56673 7.10376,29.42018c-1.65532,9.35653 -8.06186,17.09281 -13.6131,24.78814c-6.80312,8.79471 -9.70042,16.20794 -9.70042,16.20794c0,0 -6.15949,-9.8692 -2.08499,-31.94508c4.8054,-22.60948 18.29475,-38.47118 18.29475,-38.47118z" id="path848"/>
  </g>
  <g display="inline"  id="layer3" >
   <path stroke-width="0.1866px" stroke="#ffffff" fill="#ffffff"  id="path861" d="m36.19225,41.70696c0,0 -7.28844,10.33042 -11.45502,23.78523c-3.81348,11.3962 -2.62283,23.94998 -2.62283,23.94998l4.94786,-7.02125c0,0 2.09575,-10.34533 3.80047,-15.31234c2.11264,-6.15557 7.6503,-16.54258 7.6503,-16.54258c0,0 -0.12485,-1.92833 -0.80389,-4.50709c-0.39552,-1.50201 -1.51689,-4.35195 -1.51689,-4.35195z"/>
   <path stroke-width="0.1866px" stroke="#ffffff" fill="#ffffff"  id="path863" d="m48.56679,14.50919c0,0 4.48945,6.98266 7.70165,18.47626c2.34903,8.40508 4.56745,18.95593 2.08942,31.48566c-5.04758,18.56026 -16.65371,28.97969 -23.14801,38.773c-8.00108,11.17109 -8.22349,19.97277 -8.22349,19.97277l4.88241,4.51233c0,0 0.67044,-9.18412 8.67198,-19.85963c8.81937,-12.24534 22.166,-28.99924 23.38182,-41.62087c1.91597,-27.92329 -15.35578,-51.73952 -15.35578,-51.73952z"/>
  </g>
 </g>
</svg>