<?xml version="1.0" encoding="utf-8"?>
<svg
		version="1.1"
		id="Layer_1"
		xmlns="http://www.w3.org/2000/svg"
		xmlns:xlink="http://www.w3.org/1999/xlink"
		viewBox="365 408.23 867.68 173.61"
		xml:space="preserve"
>
  <style type="text/css">
    .st0 {
      fill: #171717;
    }
  </style>
	<g>
    <g>
      <path
			  class="st0"
			  d="M623.72,513.76c0,4.54-0.99,8.57-2.97,12.1c-1.98,3.53-4.81,6.3-8.48,8.33c-3.67,2.03-7.99,3.04-12.97,3.04
			c-5.02,0-9.36-1.01-13-3.04c-3.65-2.03-6.48-4.8-8.51-8.33c-2.03-3.52-3.04-7.56-3.04-12.1v-68.89h-19.2v70.49
			c0,7.68,1.81,14.45,5.43,20.32c3.62,5.87,8.72,10.46,15.29,13.76c6.57,3.31,14.25,4.96,23.04,4.96c8.79,0,16.46-1.65,23-4.96
			c6.54-3.31,11.63-7.9,15.25-13.76c3.62-5.87,5.43-12.64,5.43-20.32v-70.49h-19.27V513.76z"
	  />
		<path
				class="st0"
				d="M729.2,500.8c-0.68,2.13-1.47,4.79-2.39,8.01c-0.92,3.21-1.85,6.64-2.79,10.29
			c-0.94,3.65-1.84,7.18-2.68,10.61c-0.03,0.13-0.06,0.26-0.1,0.39c-0.04-0.17-0.08-0.33-0.12-0.5c-0.85-3.45-1.75-7-2.72-10.65
			c-0.97-3.65-1.9-7.06-2.79-10.25c-0.9-3.19-1.7-5.82-2.43-7.9l-20.57-55.93h-28.83v107.94h18.98v-54.62
			c0-2.37-0.04-5.22-0.11-8.55c-0.07-3.33-0.15-6.86-0.22-10.58c-0.07-3.72-0.16-7.45-0.25-11.19c-0.03-1.19-0.06-2.35-0.08-3.48
			c0.46,1.57,0.92,3.15,1.39,4.75c1.16,3.96,2.3,7.78,3.44,11.45c1.13,3.67,2.18,7.02,3.15,10.03c0.97,3.02,1.81,5.54,2.54,7.57
			l20.36,54.62h16.23l20.14-54.62c0.68-2.03,1.51-4.58,2.5-7.64c0.99-3.07,2.04-6.45,3.15-10.14c1.11-3.69,2.23-7.51,3.37-11.45
			c0.54-1.88,1.07-3.73,1.58-5.56c-0.02,1.57-0.05,3.16-0.1,4.8c-0.1,3.77-0.19,7.5-0.29,11.19c-0.1,3.69-0.18,7.17-0.25,10.43
			c-0.07,3.26-0.11,6.05-0.11,8.37v54.62h19.2V444.87h-28.83L729.2,500.8z"
		/>
		<polygon
				class="st0"
				points="818.6,444.87 799.25,444.87 799.25,552.81 866.77,552.81 866.77,536.44 818.6,536.44 		"
		/>
		<path
				class="st0"
				d="M894.52,531.08c-3.24,0-5.98,1.11-8.22,3.33c-2.25,2.22-3.37,4.95-3.37,8.19c0,3.19,1.12,5.89,3.37,8.11
			c2.25,2.22,4.99,3.33,8.22,3.33c3.19,0,5.9-1.11,8.15-3.33c2.25-2.22,3.37-4.93,3.37-8.11c0-3.24-1.12-5.96-3.37-8.19
			C900.42,532.19,897.7,531.08,894.52,531.08z"
		/>
		<path
				class="st0"
				d="M976.34,530.79c-0.99,1.79-2.21,3.3-3.66,4.53c-1.45,1.23-3.13,2.19-5.03,2.86
			c-1.91,0.68-4.02,1.01-6.34,1.01c-4.3,0-7.88-1.13-10.76-3.41c-2.87-2.27-5.05-5.37-6.52-9.31c-1.47-3.94-2.21-8.39-2.21-13.37
			c0-5.07,0.74-9.57,2.21-13.51c1.47-3.94,3.65-7.04,6.52-9.31c2.87-2.27,6.46-3.4,10.76-3.4c2.32,0,4.42,0.34,6.3,1.01
			c1.88,0.68,3.54,1.62,4.96,2.83c1.42,1.21,2.63,2.66,3.62,4.35c0.99,1.69,1.7,3.57,2.14,5.65l17.75-2.83
			c-0.77-4.01-2.16-7.63-4.17-10.87c-2-3.24-4.53-6-7.57-8.29c-3.04-2.29-6.52-4.04-10.43-5.25c-3.91-1.21-8.16-1.81-12.75-1.81
			c-7.78,0-14.54,1.73-20.28,5.18c-5.75,3.45-10.2,8.29-13.37,14.52c-3.16,6.23-4.74,13.47-4.74,21.73c0,8.21,1.58,15.43,4.74,21.66
			c3.16,6.23,7.62,11.07,13.37,14.52c5.75,3.45,12.51,5.18,20.28,5.18c4.64,0,8.92-0.63,12.86-1.88c3.94-1.26,7.43-3.05,10.47-5.4
			c3.04-2.34,5.58-5.14,7.61-8.4c2.03-3.26,3.4-6.94,4.13-11.05l-17.75-2.9C978.04,527.02,977.33,529,976.34,530.79z"
		/>
		<path
				class="st0"
				d="M1068.74,475.22c-4.15-2.37-8.98-3.55-14.49-3.55c-6.62,0-12.13,1.76-16.55,5.29
			c-3.07,2.45-5.61,5.75-7.64,9.85v-41.94h-18.55v107.94h18.69V506.3c0-4.06,0.75-7.46,2.25-10.21c1.5-2.75,3.54-4.84,6.12-6.27
			c2.58-1.42,5.52-2.14,8.8-2.14c4.97,0,8.85,1.52,11.63,4.56c2.78,3.04,4.17,7.32,4.17,12.82v47.74h18.76v-50.64
			c0-6.52-1.16-12.05-3.48-16.59C1076.13,481.04,1072.89,477.59,1068.74,475.22z"
		/>
		<path
				class="st0"
				d="M1155.75,477.8c-3.14-2.15-6.65-3.71-10.54-4.67c-3.89-0.97-7.86-1.45-11.92-1.45
			c-5.7,0-10.88,0.83-15.54,2.5c-4.66,1.67-8.6,4.13-11.81,7.39c-3.21,3.26-5.47,7.33-6.77,12.21l17.46,2.75
			c0.58-1.88,1.58-3.61,3.01-5.18c1.42-1.57,3.28-2.83,5.58-3.77c2.29-0.94,4.96-1.41,8-1.41c3.09,0,5.67,0.48,7.75,1.45
			c2.08,0.97,3.66,2.35,4.75,4.17c1.09,1.81,1.63,4,1.63,6.56v0.43c0,1.79-0.66,3.11-1.99,3.98c-1.33,0.87-3.44,1.5-6.34,1.88
			c-2.9,0.39-6.71,0.85-11.45,1.38c-3.91,0.39-7.7,1.04-11.37,1.96c-3.67,0.92-6.97,2.26-9.89,4.02c-2.92,1.76-5.23,4.12-6.92,7.06
			c-1.69,2.95-2.54,6.69-2.54,11.23c0,5.26,1.18,9.68,3.55,13.26c2.37,3.57,5.59,6.28,9.67,8.11c4.08,1.83,8.68,2.75,13.8,2.75
			c4.2,0,7.84-0.58,10.9-1.74c3.07-1.16,5.64-2.7,7.71-4.64c2.08-1.93,3.69-4.03,4.85-6.3h0.65v11.08h18.04v-53.68
			c0-5.07-0.93-9.36-2.79-12.86C1161.38,482.77,1158.88,479.95,1155.75,477.8z M1147.49,523.91c0,3-0.76,5.75-2.28,8.26
			c-1.52,2.51-3.69,4.53-6.52,6.05c-2.83,1.52-6.17,2.28-10.03,2.28c-2.71,0-5.07-0.4-7.1-1.2c-2.03-0.8-3.62-1.97-4.78-3.51
			c-1.16-1.55-1.74-3.45-1.74-5.72c0-2.46,0.65-4.46,1.96-5.98c1.3-1.52,3.08-2.73,5.32-3.62c2.25-0.89,4.75-1.53,7.5-1.92
			c1.35-0.14,2.91-0.35,4.67-0.62c1.76-0.26,3.52-0.55,5.29-0.87c1.76-0.31,3.33-0.68,4.71-1.09c1.38-0.41,2.38-0.86,3.01-1.34
			V523.91z"
		/>
		<path
				class="st0"
				d="M1222.68,537.74c-0.87,0.14-2.03,0.29-3.48,0.43s-2.63,0.22-3.55,0.22c-2.9,0-4.96-0.65-6.19-1.96
			c-1.23-1.3-1.85-3.38-1.85-6.23v-42.67h15.65v-14.71h-15.65V453.2h-18.69v19.63h-11.95v14.71h11.95v44.48
			c0,7,2.03,12.36,6.09,16.08c4.06,3.72,9.97,5.58,17.75,5.58c2.03,0,4.1-0.11,6.23-0.33c2.12-0.22,4.13-0.57,6.01-1.05
			L1222.68,537.74z"
		/>
    </g>
		<g>
      <rect x="469.67" y="418.23" class="st0" width="31.56" height="35.86" />
			<path
					class="st0"
					d="M461.02,551.06c-5.36,6.1-12.77,9.87-20.96,9.87v-15.09c-0.65,0.05-1.29,0.07-1.95,0.07
			c-17.43,0-31.56-16.06-31.56-35.86v-55.95h31.56v-35.86h-31.56v35.86H375v55.95c0,19.81,7.06,37.74,18.49,50.72
			c11.42,12.98,27.2,21.01,44.63,21.01c34.86,0,63.11-32.11,63.11-71.73v-20.09H469.7v37.28
			C469.7,536.54,466.38,544.96,461.02,551.06z"
			/>
			<polygon
					class="st0"
					points="438.11,454.09 438.11,489.96 469.67,489.96 469.67,489.96 469.7,489.96 469.7,489.75 469.67,489.94
			469.67,454.09 		"
			/>
			<ellipse class="st0" cx="440.06" cy="513.47" rx="3.9" ry="4.44" />
			<ellipse class="st0" cx="425.32" cy="513.47" rx="3.9" ry="4.44" />
			<ellipse class="st0" cx="454.8" cy="513.47" rx="3.9" ry="4.44" />
    </g>
  </g>
</svg>