<svg width="424" height="550" xmlns="http://www.w3.org/2000/svg" xml:space="preserve" version="1.1">

 <g>
  <title>Layer 1</title>
  <g id="svg_1">
   <rect id="svg_2" fill="#171717" height="120.47" width="106" class="st0" y="0.33" x="318"/>
   <path id="svg_3" fill="#171717" d="m288.94,446.5c-18.02,20.48 -42.91,33.14 -70.4,33.14l0,-50.68c-2.17,0.16 -4.34,0.24 -6.54,0.24c-58.55,0 -106,-53.93 -106,-120.45l0,-187.95l106,0l0,-120.47l-106,0l0,120.47l-106,0l0,187.95c0,66.54 23.72,126.77 62.1,170.37c38.35,43.6 91.36,70.56 149.91,70.56c117.08,0 211.99,-107.86 211.99,-240.93l0,-67.47l-105.9,0l0,125.22c0,31.23 -11.14,59.52 -29.16,80z" class="st0"/>
   <polygon id="svg_4" fill="#171717" points="212,120.79998779296875 212,241.26998901367188 318,241.26998901367188 318,241.26998901367188 318.0999755859375,241.26998901367188 318.0999755859375,240.55999755859375 318,241.22000122070312 318,120.79998779296875 " class="st0"/>
   <ellipse id="svg_5" fill="#171717" ry="14.9" rx="13.11" cy="320.25" cx="218.54" class="st0"/>
   <ellipse id="svg_6" fill="#171717" ry="14.9" rx="13.11" cy="320.25" cx="169.02" class="st0"/>
   <ellipse id="svg_7" fill="#171717" ry="14.9" rx="13.11" cy="320.25" cx="268.06" class="st0"/>
  </g>
 </g>
</svg>