<?xml version="1.0" encoding="utf-8"?>
<!-- Generator: Adobe Illustrator 24.1.1, SVG Export Plug-In . SVG Version: 6.00 Build 0)  -->
<svg version="1.1" id="Layer_1" xmlns="http://www.w3.org/2000/svg" xmlns:xlink="http://www.w3.org/1999/xlink" x="0px" y="0px"
	 viewBox="0 0 1600 1000" style="enable-background:new 0 0 1600 1000;" xml:space="preserve">
<style type="text/css">
	.st0{fill:#171717;}
</style>
<g>
	<rect x="906" y="225.33" class="st0" width="106" height="120.47"/>
	<path class="st0" d="M876.94,671.5c-18.02,20.48-42.91,33.14-70.4,33.14v-50.68c-2.17,0.16-4.34,0.24-6.54,0.24
		c-58.55,0-106-53.93-106-120.45V345.8h106V225.33H694V345.8H588v187.95c0,66.54,23.72,126.77,62.1,170.37
		c38.35,43.6,91.36,70.56,149.91,70.56c117.08,0,211.99-107.86,211.99-240.93v-67.47H906.1v125.22
		C906.1,622.73,894.96,651.02,876.94,671.5z"/>
	<polygon class="st0" points="800,345.8 800,466.27 906,466.27 906,466.27 906.1,466.27 906.1,465.56 906,466.22 906,345.8 	"/>
	<ellipse class="st0" cx="806.54" cy="545.25" rx="13.11" ry="14.9"/>
	<ellipse class="st0" cx="757.02" cy="545.25" rx="13.11" ry="14.9"/>
	<ellipse class="st0" cx="856.06" cy="545.25" rx="13.11" ry="14.9"/>
</g>
</svg>
