<?xml version="1.0" encoding="UTF-8"?>
<svg id="Layer_2" data-name="Layer 2" xmlns="http://www.w3.org/2000/svg" viewBox="0 0 687.07 114.41">
  <defs>
    <style>
      .cls-1 {
        fill: #242424;
      }
    </style>
  </defs>
  <g id="Layer_1-2" >
    <g>
      <g>
        <path class="cls-1" d="M656.38,2.98h-56.49v61.36h56.49c15.45,0,30.69-8.84,30.69-30.67s-15.24-30.69-30.69-30.69ZM653.14,44.85h-26.72v-22.38h26.72c6.86,0,9.93,3.88,9.93,11.2s-3.07,11.18-9.93,11.18Z"/>
        <polygon class="cls-1" points="531.04 28.61 531.04 64.35 504.59 64.35 504.59 2.97 534.38 2.97 567.5 34.38 567.5 2.97 594.04 2.97 594.04 64.35 566.33 64.35 531.04 28.61"/>
        <path class="cls-1" d="M470.32,1.71h-31.87c-15.43,0-29.79,10.21-29.79,31.96s14.36,32.03,29.79,32.03h31.87c15.43,0,29.33-10.21,29.33-32.03s-13.9-31.96-29.33-31.96ZM465.08,47.11h-21.39c-7.76,0-11.92-2.45-11.92-13.44s5.06-13.46,11.92-13.46h21.39c6.86,0,11.55,2.54,11.55,13.46s-4.69,13.44-11.55,13.44Z"/>
        <polygon class="cls-1" points="355.07 64.35 355.07 40.88 323.2 2.97 353.17 2.97 368.34 21.66 383.5 2.97 413.47 2.97 381.61 40.88 381.61 64.35 355.07 64.35"/>
        <polygon class="cls-1" points="244.38 64.35 244.38 2.97 320.65 2.97 320.65 21.11 270.82 21.11 270.82 26.53 316.41 26.53 316.41 40.88 270.82 40.88 270.82 46.21 320.65 46.21 320.65 64.35 244.38 64.35"/>
        <path class="cls-1" d="M230.22,32.4c4.69-3.79,5.96-7.32,5.96-15.26,0-6.77-4.6-14.16-16.79-14.16h-65.98v61.36h65.7c15.08,0,20.32-6.58,20.32-16.86,0-8.22-2.98-12.91-9.21-15.08ZM179.94,21.57c9.93,0,24.55-.09,28.61-.09,3.79,0,3.97,5.96,0,5.96h-28.61v-5.87ZM210.82,45.84h-30.87v-5.87h30.87c4.32,0,3.79,5.87,0,5.87Z"/>
        <g>
          <path class="cls-1" d="M205.63,82.23l-5.68,17.25-7.04-17.25h-13.13l-7.1,17.25-5.63-17.25h-13.64l12.14,29.26h14.53l6.29-14.64,6.23,14.64h14.55l12.14-29.26h-13.64Z"/>
          <path class="cls-1" d="M257.36,90.88v-8.64h-36.35v29.26h36.35v-8.66h-23.76v-2.54h21.74v-6.84h-21.74v-2.57h23.76Z"/>
          <path class="cls-1" d="M296.47,96.25c2.22-1.8,2.83-3.48,2.83-7.26,0-3.22-2.19-6.75-8-6.75h-31.44v29.26h31.32c7.19,0,9.67-3.14,9.67-8.05,0-3.92-1.42-6.14-4.38-7.19ZM272.51,91.1c4.73,0,11.7-.06,13.63-.06,1.82,0,1.89,2.85,0,2.85h-13.63v-2.8ZM287.22,102.66h-14.71v-2.8h14.71c2.06,0,1.8,2.8,0,2.8Z"/>
          <path class="cls-1" d="M350.3,94.02c-5.98-.18-12.14-.35-18.08-.48-1.16,0-1.58-.29-1.58-1.07,0-1.21.42-1.64,1.58-1.64h14.09c1.54,0,3.25.04,3.38,1.71h12.04c0-7.52-3.48-10.96-12.25-10.96h-18.21c-6.8,0-12.08,2.02-12.08,10.06,0,6.45,4.51,8,12.04,8,5.92.18,12.08.35,18.02.48,1.16,0,1.67.35,1.67,1.12,0,1.2-.42,1.67-1.58,1.67-2.11,0-10.15-.04-14.77-.04-1.51,0-3.27-.06-3.4-1.67h-12.04c0,7.52,3.49,10.96,12.3,10.96h18.85c6.8,0,12.08-2.02,12.08-10.06,0-6.45-4.56-8.09-12.08-8.09Z"/>
          <path class="cls-1" d="M393.29,81.63h-15.19c-7.36,0-14.2,4.85-14.2,15.23s6.84,15.28,14.2,15.28h15.19c7.36,0,13.98-4.87,13.98-15.28s-6.62-15.23-13.98-15.23ZM390.79,103.27h-10.21c-3.7,0-5.66-1.16-5.66-6.42s2.41-6.4,5.66-6.4h10.21c3.27,0,5.5,1.2,5.5,6.4s-2.22,6.42-5.5,6.42Z"/>
          <path class="cls-1" d="M422.29,102.02v-19.79h-12.65v29.26h35.84v-9.47h-23.19Z"/>
          <path class="cls-1" d="M476.98,82.23v14.62c0,3.92-2.02,5.98-5.26,5.98h-6.2c-3.25,0-5.28-2.06-5.28-5.98v-14.62h-12.61v14.62c0,10.41,7.28,15.28,14.64,15.28h12.69c7.36,0,14.62-4.87,14.62-15.28v-14.62h-12.6Z"/>
          <path class="cls-1" d="M492.39,82.23v9.64c2.92,0,8.68,0,15.13-.06v19.68h12.61v-19.68h15.17v-9.58h-42.92Z"/>
          <path class="cls-1" d="M538.12,82.23v29.26h12.61v-29.26h-12.61Z"/>
          <path class="cls-1" d="M582.47,81.63h-15.19c-7.36,0-14.2,4.85-14.2,15.23s6.84,15.28,14.2,15.28h15.19c7.36,0,13.98-4.87,13.98-15.28s-6.62-15.23-13.98-15.23ZM579.99,103.27h-10.21c-3.7,0-5.68-1.16-5.68-6.42s2.41-6.4,5.68-6.4h10.21c3.25,0,5.5,1.2,5.5,6.4s-2.24,6.42-5.5,6.42Z"/>
          <path class="cls-1" d="M628.81,82.23v14.97l-15.78-14.97h-14.2v29.26h12.6v-17.05l16.83,17.05h13.2v-29.26h-12.65Z"/>
          <path class="cls-1" d="M674.99,94.02c-5.98-.18-12.14-.35-18.08-.48-1.16,0-1.58-.29-1.58-1.07,0-1.21.42-1.64,1.58-1.64h14.07c1.56,0,3.27.04,3.4,1.71h12.04c0-7.52-3.48-10.96-12.25-10.96h-18.21c-6.8,0-12.08,2.02-12.08,10.06,0,6.45,4.51,8,12.04,8,5.92.18,12.08.35,18.02.48,1.16,0,1.67.35,1.67,1.12,0,1.2-.42,1.67-1.58,1.67-2.11,0-10.17-.04-14.77-.04-1.51,0-3.27-.06-3.4-1.67h-12.04c0,7.52,3.49,10.96,12.3,10.96h18.85c6.8,0,12.08-2.02,12.08-10.06,0-6.45-4.56-8.09-12.08-8.09Z"/>
        </g>
      </g>
      <path class="cls-1" d="M43.05,0l6.47,11.54c3.77,6.72,3.77,14.91,0,21.62l-7.1,12.66,7.1,12.65c3.77,6.72,3.77,14.91,0,21.62l-7.1,12.65h-19.1l12.19-21.78c.59-1.05.59-2.33,0-3.37l-12.19-21.78,12.19-21.78c.59-1.05.59-2.33,0-3.37L23.95,0H0v114.41h68.43l12.2-21.78c.59-1.05.59-2.33,0-3.37l-12.19-21.78,12.19-21.78c.59-1.05.59-2.33,0-3.37l-11.57-20.67h19.1l6.47,11.54c3.77,6.72,3.77,14.91,0,21.62l-7.1,12.65,7.1,12.65c3.77,6.72,3.77,14.91,0,21.63l-7.1,12.65h26.88V0H43.05Z"/>
    </g>
  </g>
</svg>