<?xml version="1.0" encoding="UTF-8"?>
<svg id="Layer_2" data-name="Layer 2" xmlns="http://www.w3.org/2000/svg" viewBox="0 0 351.01 351.01">
  <defs>
    <style>
      .cls-1 {
        fill: #ddddd0;
      }
    </style>
  </defs>
  <g id="Layer_1-2" data-name="Layer 1">
    <path class="cls-1" d="M132.07,0l19.86,35.41c11.56,20.61,11.56,45.74,0,66.34l-21.77,38.82,21.77,38.82c11.56,20.61,11.56,45.74,0,66.34l-21.77,38.82h-58.59l37.41-66.82c1.81-3.22,1.81-7.14,0-10.35l-37.41-66.81,37.41-66.82c1.8-3.22,1.8-7.14,0-10.35L73.47,0H0v351.01h209.94l37.41-66.82c1.8-3.22,1.8-7.14,0-10.35l-37.41-66.81,37.41-66.82c1.8-3.22,1.8-7.14,0-10.35l-35.51-63.41h58.61l19.86,35.41c11.56,20.61,11.56,45.74,0,66.34l-21.77,38.82,21.77,38.82c11.56,20.61,11.56,45.74,0,66.35l-21.77,38.82h82.47V0h-218.94Z"/>
  </g>
</svg>